<?xml version="1.0" standalone="no"?>
<!DOCTYPE svg PUBLIC "-//W3C//DTD SVG 20010904//EN"
 "http://www.w3.org/TR/2001/REC-SVG-20010904/DTD/svg10.dtd">
<svg version="1.0" xmlns="http://www.w3.org/2000/svg"
 width="219.000000pt" height="348.000000pt" viewBox="0 0 219.000000 348.000000"
 preserveAspectRatio="xMidYMid meet">

<g transform="translate(0.000000,348.000000) scale(0.100000,-0.100000)"
fill="#000000" stroke="none">
<path d="M744 3445 c-34 -11 -68 -25 -75 -32 -14 -11 -19 -13 -40 -13 -5 0 -7
-5 -3 -12 4 -7 3 -8 -5 -4 -17 11 -41 -12 -34 -32 4 -14 3 -14 -5 -3 -9 12
-13 12 -26 2 -9 -7 -13 -17 -10 -22 3 -5 -1 -6 -9 -4 -7 3 -41 -23 -80 -64
-62 -64 -73 -80 -67 -106 1 -5 -2 -7 -6 -2 -10 9 -54 -63 -77 -123 -37 -103
-46 -263 -20 -365 8 -33 18 -64 21 -70 4 -5 7 -14 7 -20 0 -5 9 -27 20 -47 18
-37 19 -37 38 -20 20 17 20 17 4 -8 -13 -21 -13 -28 -3 -42 7 -10 17 -14 21
-10 5 4 5 2 1 -5 -3 -6 12 -33 35 -60 52 -59 69 -72 89 -66 12 4 12 3 2 -5
-11 -7 -8 -14 14 -31 31 -24 41 -26 46 -9 3 9 6 9 12 0 4 -7 2 -12 -3 -12 -22
0 -10 -20 20 -36 19 -10 28 -11 24 -3 -4 6 5 2 21 -9 16 -12 38 -23 49 -25 11
-1 25 -6 32 -10 6 -4 22 -3 35 2 18 7 25 6 25 -4 0 -7 -6 -11 -13 -8 -9 3 -12
-55 -13 -256 -2 -271 1 -295 43 -330 9 -7 13 -17 10 -22 -3 -5 2 -9 10 -9 9 0
15 -3 15 -7 -4 -22 2 -33 14 -27 6 4 9 4 5 -1 -11 -12 11 -47 25 -39 7 4 9 4
5 -1 -4 -4 0 -21 9 -36 13 -22 20 -26 30 -17 10 8 12 7 8 -3 -8 -22 54 -111
73 -104 11 4 12 2 4 -8 -8 -10 -8 -17 -1 -24 6 -6 17 -22 23 -35 7 -12 18 -22
24 -21 7 2 9 -4 5 -14 -4 -11 -3 -14 5 -9 9 5 12 151 12 569 0 309 -4 567 -8
573 -4 6 -15 10 -25 8 -9 -1 -15 1 -13 5 3 4 -15 15 -40 24 -30 11 -42 12 -38
4 4 -7 -3 -3 -15 8 -19 16 -24 17 -32 5 -5 -8 -6 -22 -3 -30 4 -11 2 -12 -6
-4 -9 9 -9 17 -1 32 9 17 7 23 -11 36 -12 8 -24 13 -28 11 -4 -3 -16 5 -26 18
l-19 22 25 -20 c14 -10 -6 13 -45 53 -67 69 -93 91 -64 55 13 -16 12 -17 -3
-4 -10 7 -15 17 -12 22 3 6 -8 31 -25 58 -17 26 -31 53 -31 59 0 7 -4 12 -9
12 -5 0 -7 10 -3 22 4 16 2 19 -8 13 -8 -5 -11 -4 -6 3 3 6 1 23 -5 39 -15 40
-20 64 -20 98 0 19 -3 25 -9 16 -4 -8 -6 4 -4 30 2 24 6 69 8 99 4 54 17 102
42 150 8 17 9 31 3 43 -8 13 -6 15 4 11 16 -6 31 22 20 38 -3 7 -1 8 5 4 16
-10 15 6 0 24 -11 12 -10 12 3 2 17 -13 39 1 39 25 0 7 5 13 10 13 6 0 10 5
10 11 0 5 -6 7 -12 3 -9 -5 -9 -2 1 9 16 20 25 23 15 5 -4 -7 2 -5 12 5 17 15
17 19 4 28 -12 8 -10 9 8 4 20 -6 27 1 24 26 -1 4 6 6 15 5 9 0 18 4 20 11 6
16 -19 13 -93 -12z m-123 -308 c-10 -9 -11 -8 -5 6 3 10 9 15 12 12 3 -3 0
-11 -7 -18z m-257 -43 c3 -8 2 -12 -4 -9 -6 3 -10 10 -10 16 0 14 7 11 14 -7z
m233 -66 c-3 -8 -6 -5 -6 6 -1 11 2 17 5 13 3 -3 4 -12 1 -19z m-290 -60 c-3
-8 -6 -5 -6 6 -1 11 2 17 5 13 3 -3 4 -12 1 -19z m300 -160 c-3 -8 -6 -5 -6 6
-1 11 2 17 5 13 3 -3 4 -12 1 -19z m-250 -270 c-3 -8 -6 -5 -6 6 -1 11 2 17 5
13 3 -3 4 -12 1 -19z m423 -3 c11 -13 10 -14 -4 -9 -9 3 -16 10 -16 15 0 13 6
11 20 -6z m41 -42 c13 -16 12 -17 -3 -4 -10 7 -18 15 -18 17 0 8 8 3 21 -13z
m0 -30 c13 -16 12 -17 -3 -4 -10 7 -18 15 -18 17 0 8 8 3 21 -13z m-346 -93
c3 -6 -1 -7 -9 -4 -18 7 -21 14 -7 14 6 0 13 -4 16 -10z m86 -87 c13 -17 13
-17 -6 -3 -11 8 -22 16 -24 17 -2 2 0 3 6 3 6 0 17 -8 24 -17z m393 -815 c-4
-5 -9 -7 -12 -4 -3 3 -12 0 -21 -7 -14 -10 -14 -10 -4 4 13 16 46 23 37 7z"/>
<path d="M1175 3299 c-4 -6 -13 -8 -20 -5 -7 2 -16 2 -20 -2 -6 -7 -10 -8 -36
-11 -5 0 -8 -4 -6 -8 3 -5 -5 -9 -18 -9 -20 -2 -125 -94 -125 -110 0 -3 26 -4
58 -3 38 2 70 -3 91 -14 31 -15 33 -15 26 1 -3 9 7 2 24 -15 16 -18 34 -33 39
-33 5 0 15 -7 22 -15 15 -18 34 -20 24 -2 -6 9 -5 9 8 0 8 -7 18 -11 21 -8 4
3 5 2 2 -2 -3 -3 0 -12 7 -20 6 -7 8 -16 4 -20 -3 -3 -6 -1 -6 6 0 7 -4 10 -9
7 -4 -3 4 -29 18 -58 24 -48 26 -64 27 -181 0 -70 -2 -123 -6 -116 -6 8 -11 5
-19 -10 -7 -12 -9 -27 -5 -33 5 -7 3 -8 -6 -3 -10 6 -12 4 -7 -9 4 -9 3 -14
-2 -11 -5 3 -12 1 -16 -5 -4 -6 5 -10 19 -10 14 0 26 4 26 10 0 5 7 7 15 4 8
-3 20 -2 27 2 7 5 19 9 26 10 8 2 22 10 31 18 10 9 24 16 31 16 7 0 38 25 67
56 41 43 52 60 47 76 -4 14 -2 18 5 14 13 -8 45 59 36 74 -3 5 -1 11 5 15 11
7 14 108 3 119 -8 7 -9 12 -11 54 -1 13 -6 20 -12 17 -5 -3 -10 1 -10 10 0 45
-99 162 -128 150 -7 -2 -11 -1 -8 4 4 7 -43 36 -52 32 -1 -1 -15 5 -32 14 -33
17 -145 20 -155 4z m20 -37 c-3 -3 -11 0 -18 7 -9 10 -8 11 6 5 10 -3 15 -9
12 -12z m-174 -65 c-6 -8 -9 -16 -6 -19 3 -2 -1 -5 -8 -5 -8 0 -14 6 -14 13 0
7 4 11 8 8 4 -2 10 0 14 6 3 5 9 10 12 10 3 0 0 -6 -6 -13z m461 -2 c2 3 5 -1
5 -8 0 -8 -6 -14 -14 -14 -7 0 -11 3 -8 5 3 3 -1 12 -8 21 -10 14 -10 14 4 4
9 -7 18 -11 21 -8z m-321 -58 c-10 -9 -11 -8 -5 6 3 10 9 15 12 12 3 -3 0 -11
-7 -18z m33 -23 c3 -8 2 -12 -4 -9 -6 3 -10 10 -10 16 0 14 7 11 14 -7z m344
-9 c-3 -3 -9 2 -12 12 -6 14 -5 15 5 6 7 -7 10 -15 7 -18z m-235 -120 c-3 -9
-8 -14 -10 -11 -3 3 -2 9 2 15 9 16 15 13 8 -4z m21 -30 c-4 -8 -1 -15 6 -15
6 0 8 -5 4 -11 -4 -8 -9 -7 -15 2 -12 19 -11 39 1 39 5 0 7 -7 4 -15z m234
-60 c-3 -3 -9 2 -12 12 -6 14 -5 15 5 6 7 -7 10 -15 7 -18z m-231 -27 c-3 -8
-6 -5 -6 6 -1 11 2 17 5 13 3 -3 4 -12 1 -19z m134 -127 c-5 -9 -6 -23 -3 -31
2 -8 2 -12 -2 -8 -14 12 -13 55 0 55 9 0 10 -6 5 -16z m22 -16 c-3 -9 -8 -14
-10 -11 -3 3 -2 9 2 15 9 16 15 13 8 -4z m-143 1 c0 -2 -7 -7 -16 -10 -8 -3
-12 -2 -9 4 6 10 25 14 25 6z m1 -53 c-12 -20 -14 -14 -5 12 4 9 9 14 11 11 3
-2 0 -13 -6 -23z m24 -12 c3 -5 2 -12 -3 -15 -5 -3 -9 1 -9 9 0 17 3 19 12 6z"/>
<path d="M1240 3050 c0 -5 5 -10 11 -10 5 0 7 5 4 10 -3 6 -8 10 -11 10 -2 0
-4 -4 -4 -10z"/>
<path d="M2129 2331 c-1 -3 -1 -9 0 -13 0 -3 -7 -5 -17 -3 -22 3 -44 -14 -35
-28 3 -5 1 -7 -5 -3 -6 3 -27 -2 -46 -11 -28 -14 -35 -23 -32 -38 5 -19 4 -19
-8 -2 -12 16 -15 16 -47 -6 -19 -13 -62 -38 -96 -57 -34 -19 -60 -37 -57 -41
2 -4 -4 -6 -14 -5 -9 0 -16 -4 -15 -10 1 -7 -6 -10 -17 -7 -11 3 -20 1 -20 -5
0 -6 -9 -14 -20 -17 -11 -4 -18 -10 -16 -14 3 -4 -5 -7 -17 -7 -13 1 -21 -4
-19 -12 1 -8 -2 -11 -7 -8 -17 11 -62 -13 -59 -31 2 -10 -3 -18 -12 -18 -8 -1
-14 -6 -12 -13 1 -7 -1 -11 -5 -10 -5 2 -8 0 -8 -3 0 -4 -8 -16 -18 -27 -11
-12 -16 -26 -11 -33 4 -7 3 -10 -4 -6 -17 11 -84 -90 -77 -116 5 -20 5 -20 -6
-3 -11 17 -12 17 -23 -5 -9 -17 -10 -30 -3 -44 9 -18 9 -19 -7 -6 -16 13 -17
-4 -16 -273 1 -157 3 -286 4 -286 7 0 81 125 79 132 -2 4 5 8 14 8 9 0 14 3
10 6 -3 4 14 35 39 69 31 44 41 66 33 71 -8 5 -9 3 -4 -6 5 -8 4 -11 -3 -6 -5
3 -12 1 -14 -6 -3 -7 -7 -5 -11 6 -4 9 -3 15 2 11 5 -3 12 -1 16 4 3 6 12 8
20 5 9 -4 23 8 37 33 13 21 22 41 20 46 -1 4 6 7 15 7 9 0 14 3 10 6 -3 4 14
35 39 69 31 44 41 66 33 71 -8 5 -9 3 -4 -6 5 -8 4 -11 -3 -6 -5 3 -12 1 -14
-6 -3 -7 -7 -5 -11 6 -4 9 -3 15 2 11 5 -3 12 -1 16 4 3 6 12 8 20 5 17 -7 69
71 59 89 -4 7 -4 9 1 5 10 -10 116 142 108 155 -3 6 -1 7 5 3 14 -8 36 40 26
56 -4 6 -2 8 4 4 11 -6 125 149 125 171 0 6 4 10 9 7 11 -7 30 45 22 58 -4 6
-2 8 3 5 6 -4 19 3 29 15 18 20 18 21 1 15 -11 -4 -16 -3 -12 3 3 6 11 10 16
10 10 0 39 24 39 33 0 6 -30 4 -31 -2z m-164 -129 c-3 -3 -11 0 -18 7 -9 10
-8 11 6 5 10 -3 15 -9 12 -12z m48 -39 c-6 -16 -5 -17 12 -3 17 14 17 14 4 -7
-11 -19 -15 -20 -22 -8 -4 8 -5 20 -2 25 10 16 15 11 8 -7z m-160 -240 c-6
-16 -5 -17 12 -3 17 14 17 14 4 -7 -11 -19 -15 -20 -22 -8 -4 8 -5 20 -2 25
10 16 15 11 8 -7z m-419 -171 c3 -5 -1 -9 -9 -9 -8 0 -12 4 -9 9 3 4 7 8 9 8
2 0 6 -4 9 -8z"/>
<path d="M303 2314 c4 -7 0 -15 -9 -18 -9 -3 -12 -2 -9 4 4 6 -20 -1 -52 -16
-32 -14 -82 -35 -110 -46 -29 -11 -50 -24 -47 -29 3 -5 -2 -6 -10 -3 -9 3 -16
1 -16 -6 0 -6 -4 -9 -9 -5 -29 17 -31 -54 -31 -949 0 -503 3 -921 6 -929 4
-12 31 -15 144 -16 142 -2 194 4 184 20 -3 5 1 9 8 9 10 0 9 3 -2 11 -12 8
-11 9 6 4 25 -7 75 29 68 49 -3 8 -1 17 5 21 7 4 8 0 4 -11 -4 -12 -2 -15 8
-12 8 3 13 11 11 18 -2 11 0 11 11 1 12 -9 16 -8 21 4 4 11 2 14 -6 9 -7 -4
-8 -3 -4 4 4 6 12 9 19 7 7 -3 36 13 65 34 l53 38 -63 2 c-45 1 -59 -2 -48 -9
9 -6 10 -10 3 -10 -6 0 -15 5 -18 10 -3 6 -42 10 -86 10 l-79 0 -1 890 c-1
490 -2 894 -3 899 0 5 -5 13 -10 18 -5 4 -6 3 -3 -3z m-133 -80 c0 -8 -19 -13
-24 -6 -3 5 1 9 9 9 8 0 15 -2 15 -3z m356 -1769 c-8 -8 -18 -15 -22 -15 -3 0
-1 7 6 15 7 8 17 15 22 15 5 0 3 -7 -6 -15z m-489 -127 c-3 -8 -6 -5 -6 6 -1
11 2 17 5 13 3 -3 4 -12 1 -19z"/>
<path d="M610 1023 l0 -306 32 -51 c17 -28 39 -59 47 -68 9 -9 29 -34 45 -56
l28 -40 -1 -241 -2 -241 148 0 c131 0 151 3 173 20 14 11 31 20 38 20 7 0 11
4 8 9 -4 5 2 7 12 4 11 -2 25 2 33 9 8 8 18 16 24 19 5 2 9 8 7 12 -1 5 2 6 8
2 11 -7 103 49 94 58 -3 3 1 5 8 4 31 -1 48 4 48 13 0 6 -52 10 -135 10 l-135
0 -1 198 c0 243 -2 269 -21 285 -15 13 -52 68 -53 79 0 3 -9 17 -21 30 -11 13
-23 32 -27 42 -4 10 -12 14 -19 10 -7 -4 -10 -4 -6 1 4 4 0 21 -9 36 -13 22
-20 26 -30 17 -11 -8 -12 -7 -7 6 4 10 -4 30 -20 50 -14 19 -26 38 -26 41 0
19 -74 106 -86 101 -7 -3 -16 -1 -19 5 -4 5 -11 7 -16 4 -5 -4 -6 2 -2 11 4
11 8 13 11 6 2 -7 9 -9 14 -6 7 5 8 2 3 -6 -5 -9 -4 -11 4 -6 13 8 -91 163
-107 159 -5 -1 -9 3 -9 10 1 31 -4 45 -18 51 -13 5 -15 -33 -15 -301z m312
-165 c-14 -14 -44 -20 -36 -7 3 5 9 7 14 4 5 -3 11 -1 15 5 3 5 9 10 13 10 3
0 1 -5 -6 -12z m66 -84 c-1 -5 -9 -9 -16 -10 -10 -2 -11 1 -1 12 12 14 24 13
17 -2z m-287 -111 c12 -16 12 -17 -2 -6 -9 7 -20 9 -24 5 -5 -4 -5 -1 -1 6 9
16 11 15 27 -5z m12 -33 c3 6 5 6 3 -1 -4 -21 -32 -18 -32 3 0 17 2 18 12 3 8
-10 14 -12 17 -5z"/>
<path d="M1844 1293 c-15 -21 -32 -39 -36 -41 -4 -2 -8 -10 -8 -17 0 -8 -9
-20 -21 -29 -12 -8 -22 -26 -23 -39 -1 -19 -4 -23 -13 -15 -10 8 -13 6 -13 -4
0 -8 -13 -28 -30 -44 -16 -16 -30 -35 -30 -41 0 -7 -4 -13 -8 -13 -4 0 -20
-19 -35 -43 -15 -24 -41 -58 -57 -76 l-30 -32 0 -289 c0 -221 3 -289 13 -292
6 -3 76 -6 154 -7 142 -3 142 -3 138 20 -2 12 -1 18 3 15 4 -4 7 -13 7 -19 1
-15 19 -11 51 9 13 9 21 20 18 25 -3 5 1 7 8 4 17 -7 90 54 82 67 -5 7 -2 8 5
4 7 -5 20 -1 29 7 9 7 26 17 36 21 10 3 16 9 13 13 -8 8 12 33 26 33 6 0 2 -7
-9 -15 -10 -8 -14 -14 -9 -14 6 -1 21 8 34 18 23 18 21 18 -115 20 -76 1 -139
3 -141 4 -1 2 -3 184 -3 405 -1 221 -3 402 -5 402 -1 0 -15 -17 -31 -37z
m-114 -198 c11 -13 10 -14 -4 -9 -9 3 -16 10 -16 15 0 13 6 11 20 -6z m-61
-79 c11 -14 6 -15 -27 -7 -4 1 8 21 12 21 2 0 9 -6 15 -14z m-32 -48 c-3 -8
-6 -5 -6 6 -1 11 2 17 5 13 3 -3 4 -12 1 -19z"/>
</g>
</svg>
